<svg xmlns="http://www.w3.org/2000/svg" width="614" height="800" viewBox="0 0 614 800">
    <g fill="none" fill-rule="evenodd">
        <g fill="#FFF" opacity=".25">
            <path fill-opacity=".399" fill-rule="nonzero" d="M606.781 111.546l-21.194 22.446c-8.816 9.337-23.432 10.104-33.18 1.74-8.504-7.293-13.342-11.419-14.515-12.376-7.924-6.463-14.699-11.663-20.326-15.6C318.772-31.289 33.54 78.67-19.84 314.738-60.26 493.58 34.825 668.772 208.5 726.258c119.59 39.599 230.043 19.286 328.11-56.514 1.075-.831 6.591-5.489 16.548-13.974 9.4-8.01 23.353-7.607 32.27.934l2.134 2.04c5 4.77 11.403 11.098 19.21 18.986 9.334 9.43 9.24 24.626-.21 33.94l-.063.063c-11.564 11.315-18.137 17.627-19.718 18.934-86.233 71.337-227.797 118.144-376.454 78.686C40.058 764.687-85.271 620.297-105.28 445.75-128.772 234.322-2.827 66.877 154.747 1.358c158.207-65.88 326.29-28.566 436.95 63.42 2.096 1.743 6.772 6.01 14.03 12.802l.001-.001c9.69 9.067 10.178 24.255 1.093 33.925l-.04.042z"/>
            <path fill-opacity=".75" fill-rule="nonzero" d="M501.382 577.257l22.078 22.763c9.238 9.524 8.99 24.718-.554 33.936a24.03 24.03 0 0 1-.162.155c-2.923 2.77-5.548 5.124-7.877 7.06-65.353 54.34-177.608 87.778-287.414 52.84C95.978 652.715 6.981 530.535 8.192 392.992c.685-134.97 90.861-255.297 220.66-295.72 106.885-33.3 215.95-2.178 281.933 50.168 3.439 2.728 7.404 6.21 11.896 10.445 9.654 9.104 10.085 24.293.963 33.927-.109.115-.219.23-.33.342l-22.154 22.489c-8.715 8.847-22.752 9.607-32.375 1.753-4.528-3.695-8.361-6.664-11.5-8.905-47.621-33.996-102.292-49.103-164.176-41.908-57.511 6.057-110.426 34.14-147.611 78.339-76.184 87.066-76.184 216.914 0 303.98A227.347 227.347 0 0 0 250.09 616.87a231.942 231.942 0 0 0 126.63 4.53c31.564-7.517 59.773-21.454 84.905-40.278 2.048-1.533 4.428-3.42 7.142-5.662 9.674-7.99 23.88-7.207 32.615 1.798z"/>
            <path fill-opacity=".75" fill-rule="nonzero" d="M-108.39 190.965c-56.436 124.885-65.656 252.819-19.069 382.091C-91.862 672.02-24.693 747.053 63.2 804.083a451.44 451.44 0 0 0 107.746 51.272c.342.11.873.274 1.594.494a26.506 26.506 0 0 1 18.785 26.157l-.15 4.97c-.285 9.478-8.2 16.93-17.678 16.645a17.17 17.17 0 0 1-3.966-.587c-6.863-1.856-10.825-2.964-11.886-3.325C10.888 849.871-95.898 753.967-162.713 611.998a35.249 35.249 0 0 0-20.268-19.742c-89.991-35.862-145.239-126.931-135.36-223.128 9.877-96.197 82.484-174.192 177.894-191.096 4.94-.863 11.86-1.726 20.76-2.589 6.129-.595 11.58 3.881 12.175 9.997a11.105 11.105 0 0 1-.878 5.525z"/>
            <path fill-opacity=".399" d="M238.365 843.186c20.862 2.071 36.509 3.419 46.94 4.043 10.412.624 26.03 1.147 46.855 1.571 13.282 0 24.05 10.745 24.05 24v28.8c0 13.255-10.768 24-24.05 24-21.554-.468-37.72-1.024-48.497-1.669-10.066-.603-25.166-1.918-45.298-3.945-13.282 0-24.05-10.745-24.05-24v-28.8c0-13.255 10.768-24 24.05-24z"/>
        </g>
        <g fill-rule="nonzero">
            <path fill="#FFF" d="M185 380h33.313v15.164h-18.119v18.239h-3.313l3.074 6.358-.209.18c-.955-.628-1.88-1.254-2.836-1.881-1.94-1.284-3.88-2.567-5.79-3.91-.717-.508-1.613-.777-2.478-.717-1.194.06-2.388 0-3.642 0V380z"/>
            <path fill="#FCFCFC" d="M360.403 395.284l-3.373 4.626c-1.463-.865-2.955-1.552-4.627-1.85-.597-.09-1.194-.12-1.791-.12-.537 0-1.045.18-1.164.717-.18.656.448.895.865 1.015.986.298 2.03.447 3.045.656 1.493.329 2.985.717 4.358 1.433a9.103 9.103 0 0 1 2.299 1.821c.597-2.686 1.701-4.955 4.239-6.06 2.597-1.134 5.045-.656 7.224 1.374l.119-1.493h6.687v20.537c-2.12.03-4.329 0-6.657 0v-6.388c-1.91 1.672-3.791 2.538-6.18 1.94-2.387-.596-3.79-2.149-4.805-4.238-.15.12-.269.209-.358.328-1.314 2.448-3.523 3.493-6.15 3.91a17.37 17.37 0 0 1-10.806-1.76 6.49 6.49 0 0 1-2.09-1.523c1.046-1.522 2.359-2.836 3.463-4.209.568 0 .896.358 1.254.567a11.561 11.561 0 0 0 5.94 1.642c.508.06.986-.03 1.433-.269a.697.697 0 0 0 .359-.865.647.647 0 0 0-.299-.329c-.716-.477-1.582-.597-2.388-.746-1.701-.328-3.373-.716-4.985-1.433-1.612-.716-2.925-1.671-3.493-3.433-.955-2.985.508-6.268 3.493-7.671a9.3 9.3 0 0 1 3.88-.956c2.15-.03 4.27-.06 6.329.627a14.603 14.603 0 0 1 4.179 2.15zm8.687 12.835c1.403.15 2.656-1.253 2.686-2.746.03-1.582-1.283-2.955-2.716-2.925-1.433.03-2.597 1.313-2.567 2.895.03 1.582 1.074 2.747 2.597 2.776zM453.955 398.537v-6.507h6.717v21.074c-1.045.27-5.254.299-6.568.03-.149-.477.18-.955-.06-1.433a.54.54 0 0 0-.507.21c-2.656 2.835-7.462 2.238-9.79-1.433-.866-1.433-1.344-3.105-1.314-4.777-.03-2.119.388-4.09 1.582-5.91 2-3.104 6.716-3.672 9.134-1.522.21.209.508.328.806.268zm.239 6.806c0-1.612-1.104-2.865-2.537-2.895-1.433-.03-2.687 1.253-2.717 2.776-.06 1.642 1.105 2.925 2.657 2.925s2.597-1.164 2.597-2.806zM385.567 397.433v7.79c-.03.508.03.986.21 1.464.357.835.865 1.194 1.7 1.164a1.808 1.808 0 0 0 1.642-1.463c.06-.388.06-.806.03-1.194v-7.672c1.135-.328 2.269-.09 3.373-.149 1.105-.06 2.18 0 3.344 0v15.91h-6.478c-.209-.179-.328-.477-.269-.746v-.925l-1.343.985c-1.79 1.313-3.731 1.463-5.761.716-1.731-.626-2.657-1.97-3.045-3.73a7.848 7.848 0 0 1-.179-1.165v-10.955l6.776-.03zM203.239 398.269h15.104v15.134H203.24zM412.91 413.254h-6.477c-.418-.358-.12-.836-.358-1.194-.12.06-.24.12-.329.179a6.437 6.437 0 0 1-5.88 1.194c-2-.508-3.254-1.97-3.523-4.12-.239-2 .657-3.85 2.358-4.776a8.023 8.023 0 0 1 4.329-.865c1.045.06 2.06.209 3.045.507.09-1.343-.12-1.761-1.224-2.15-1.075-.417-2.15-.298-3.224-.089-.926.18-1.821.448-2.776.687l-1.135-4.12c.388-.656 1.045-.656 1.583-.806a18.244 18.244 0 0 1 8.417-.358c2.538.508 4.896 1.791 5.165 5.314.268 3.522.03 7.044.03 10.597zm-7.91-6.687a3.118 3.118 0 0 0-.746 0 1.555 1.555 0 0 0-1.403 1.284c-.18.627.09 1.313.656 1.671a1.53 1.53 0 0 0 1.91-.119 2.23 2.23 0 0 0 .777-1.224c.328-1.254.09-1.612-1.194-1.612z"/>
            <path fill="#FFF" d="M280.254 397.94h3.373c.328.597.03 1.254.239 2.03 1.313-1.433 2.686-2.448 4.716-2.418 2.03.03 3.373.955 4.537 2.508.985-.956 1.94-1.88 3.284-2.21 1.522-.387 3.045-.447 4.507.18 1.702.716 2.597 2.09 2.836 3.88.15 1.045.21 2.06.21 3.105-.03 2.686 0 5.373 0 8.15-1.165.208-2.33.208-3.493.059-.359-.418-.21-.836-.24-1.194v-6.866c0-.448 0-.895-.029-1.343-.15-1.88-1.224-2.955-3.015-2.955-1.79 0-3.104 1.164-3.224 2.985-.06 1.045-.03 2.09-.06 3.134v6.18a11.429 11.429 0 0 1-3.492.089c-.358-.478-.209-.955-.209-1.373v-7.015c0-.508-.03-.985-.09-1.493-.208-1.373-1.134-2.298-2.388-2.477-1.641-.21-2.985.477-3.492 1.88a6.213 6.213 0 0 0-.448 2.328c.03 2.687 0 5.374 0 8.09-1.194.269-2.298.06-3.522.15V397.94z"/>
            <path fill="#FCFCFC" d="M431.806 406.896c1.343 2.567 2.836 2.686 6.298.537.448.328.926.657 1.374 1.045.686.567 1.462 1.015 2.09 1.79-2.18 2.687-5.016 3.702-8.389 3.374-1.85-.18-3.582-.746-5.045-1.94-1.88-1.553-2.716-3.672-2.746-6.03-.06-3.493 1.463-6.538 4.836-8a8.864 8.864 0 0 1 7.761.268c2.448 1.224 3.552 3.373 3.94 5.94.18.986.21 2.03.06 3.016h-10.179zm-.09-2.986c.806 0 1.493.03 2.18 0 .686-.03 1.343.12 2.03-.09-.508-1.581-1.284-2.298-2.27-2.238-.925.03-1.611.806-1.94 2.328z"/>
            <path fill="#FFF" d="M247.537 413.313h-3.224c-.567 0-.686-.507-.865-.895-.567-1.314-1.105-2.627-1.702-4.03h-4.925c-1.284 0-2.597.03-3.88 0-.628-.03-.986.18-1.225.806-.537 1.373-1.164 2.716-1.76 4.12-1.165.119-2.359.089-3.523-.03-.21-.508.15-.806.298-1.135 2.687-6.09 5.403-12.179 8.06-18.298.358-.836.836-1.075 1.761-1.194 1.672-.18 2.418.447 3.045 1.97 2.507 5.91 5.134 11.761 7.731 17.612.09.268.359.537.21 1.074zm-7.164-8.268L237 397.343c-.925 1.403-3.134 6.567-3.284 7.702h6.657zM314.85 404.209c-.149-2.239-1.104-3.164-3.134-3.313a11.1 11.1 0 0 0-4.925.865c-.537-.836-.657-1.79-1.075-2.686 1.284-.896 2.687-1.165 4.09-1.344a11.743 11.743 0 0 1 4.448.21c2.328.596 3.731 2.178 4.149 4.686.15 1.045.209 2.06.18 3.104-.03 2.09 0 4.18 0 6.269 0 .388.118.806-.21 1.254h-3.283c-.418-.448-.06-1.015-.359-1.493-1.134.926-2.328 1.642-3.82 1.821-1.075.12-2.18.03-3.224-.328-2.329-.776-3.493-2.567-3.314-5.015.18-2.21 1.85-3.91 4.21-4.358a12.176 12.176 0 0 1 5.581.238c.21.06.448.09.687.09zm-3.104 2.09c-.806-.09-1.612 0-2.358.298-.955.418-1.552 1.313-1.463 2.209.12.955.836 1.731 1.791 1.94a5.145 5.145 0 0 0 3.583-.418c1.074-.537 1.552-1.462 1.76-2.597.09-.597-.119-.955-.686-1.104-.866-.21-1.731-.448-2.627-.328zM271.09 397.612a7.854 7.854 0 0 1 8.06 5.94c1.134 4.299-1.434 8.657-5.732 9.791-.299.09-.567.15-.866.18a8.72 8.72 0 0 1-5.074-.627c-3.015-1.374-4.538-3.732-4.687-7.105-.18-3.492 2.448-7.075 6.09-7.97.716-.15 1.462-.21 2.209-.21zm4.597 8.03v-.478a4.676 4.676 0 0 0-4.896-4.448c-.418.03-.806.09-1.194.21a4.744 4.744 0 0 0-3.164 4.805c.09 2.657 2.09 4.747 4.686 4.776 2.508.03 4.568-2 4.597-4.537-.03-.09-.03-.209-.03-.328z"/>
            <path fill="#FCFCFC" d="M420.134 413.194h-6.597v-15.761h6.627v2.597c.776-.836 1.254-1.672 2.06-2.21.866-.566 1.88-.835 2.925-.716v7.015c-.06.09-.268.09-.448.09-2.955.09-4.328 1.433-4.477 4.388-.06 1.194 0 2.388 0 3.582-.03.299-.06.627-.09 1.015z"/>
            <path fill="#FFF" d="M340.97 397.91c-1.104 2.747-2.12 5.374-3.134 7.97-1.105 2.836-2.239 5.702-3.343 8.538a6.62 6.62 0 0 1-1.194 2.03c-.747.955-1.881 1.492-3.105 1.522-2.18.03-2.627-.03-4.15-.895.12-.956.717-1.702 1.046-2.597.358.119.686.209 1.014.328a2.8 2.8 0 0 0 1.314.15c1.403-.12 2.12-1.284 1.582-2.568-1.761-4.239-3.552-8.478-5.313-12.687-.24-.537-.448-1.104-.687-1.701 1.284-.12 2.567-.12 3.82-.03l4.24 10.926c.328-.27.388-.597.537-.956 1.045-3.015 2.18-6.03 3.194-9.074.239-.747.567-1.045 1.373-.985.896.06 1.791.03 2.806.03zM262.254 413.194h-3.403c-.329-.358-.21-.776-.21-1.164v-6.866c0-.597-.059-1.194-.208-1.761-.478-1.731-1.343-2.507-2.985-2.537-1.821-.06-2.866.716-3.403 2.418-.18.567-.239 1.164-.239 1.76v6.717c0 .448.09.896-.12 1.373h-3.402V397.97h3.492v1.91c.478-.03.627-.358.836-.567 1.791-1.91 4-2.119 6.298-1.373 2.299.747 3.224 2.747 3.314 4.985.12 3.374.03 6.747.03 10.269zM320.552 413.224V392.09c1.135-.24 2.329-.09 3.433-.09.299.328.209.687.209 1.045v19.671a.568.568 0 0 1-.507.627h-.15c-.955-.06-1.94.09-2.985-.12z"/>
        </g>
    </g>
</svg>
