<svg xmlns="http://www.w3.org/2000/svg" width="614" height="800" viewBox="0 0 614 800">
    <g fill="#FFF" fill-rule="evenodd">
        <g opacity=".25">
            <path fill-opacity=".399" fill-rule="nonzero" d="M606.781 111.546l-21.194 22.446c-8.816 9.337-23.432 10.104-33.18 1.74-8.504-7.293-13.342-11.419-14.515-12.376-7.924-6.463-14.699-11.663-20.326-15.6C318.772-31.289 33.54 78.67-19.84 314.738-60.26 493.58 34.825 668.772 208.5 726.258c119.59 39.599 230.043 19.286 328.11-56.514 1.075-.831 6.591-5.489 16.548-13.974 9.4-8.01 23.353-7.607 32.27.934l2.134 2.04c5 4.77 11.403 11.098 19.21 18.986 9.334 9.43 9.24 24.626-.21 33.94l-.063.063c-11.564 11.315-18.137 17.627-19.718 18.934-86.233 71.337-227.797 118.144-376.454 78.686C40.058 764.687-85.271 620.297-105.28 445.75-128.772 234.322-2.827 66.877 154.747 1.358c158.207-65.88 326.29-28.566 436.95 63.42 2.096 1.743 6.772 6.01 14.03 12.802l.001-.001c9.69 9.067 10.178 24.255 1.093 33.925l-.04.042z"/>
            <path fill-opacity=".75" fill-rule="nonzero" d="M501.382 577.257l22.078 22.763c9.238 9.524 8.99 24.718-.554 33.936a24.03 24.03 0 0 1-.162.155c-2.923 2.77-5.548 5.124-7.877 7.06-65.353 54.34-177.608 87.778-287.414 52.84C95.978 652.715 6.981 530.535 8.192 392.992c.685-134.97 90.861-255.297 220.66-295.72 106.885-33.3 215.95-2.178 281.933 50.168 3.439 2.728 7.404 6.21 11.896 10.445 9.654 9.104 10.085 24.293.963 33.927-.109.115-.219.23-.33.342l-22.154 22.489c-8.715 8.847-22.752 9.607-32.375 1.753-4.528-3.695-8.361-6.664-11.5-8.905-47.621-33.996-102.292-49.103-164.176-41.908-57.511 6.057-110.426 34.14-147.611 78.339-76.184 87.066-76.184 216.914 0 303.98A227.347 227.347 0 0 0 250.09 616.87a231.942 231.942 0 0 0 126.63 4.53c31.564-7.517 59.773-21.454 84.905-40.278 2.048-1.533 4.428-3.42 7.142-5.662 9.674-7.99 23.88-7.207 32.615 1.798z"/>
            <path fill-opacity=".75" fill-rule="nonzero" d="M-108.39 190.965c-56.436 124.885-65.656 252.819-19.069 382.091C-91.862 672.02-24.693 747.053 63.2 804.083a451.44 451.44 0 0 0 107.746 51.272c.342.11.873.274 1.594.494a26.506 26.506 0 0 1 18.785 26.157l-.15 4.97c-.285 9.478-8.2 16.93-17.678 16.645a17.17 17.17 0 0 1-3.966-.587c-6.863-1.856-10.825-2.964-11.886-3.325C10.888 849.871-95.898 753.967-162.713 611.998a35.249 35.249 0 0 0-20.268-19.742c-89.991-35.862-145.239-126.931-135.36-223.128 9.877-96.197 82.484-174.192 177.894-191.096 4.94-.863 11.86-1.726 20.76-2.589 6.129-.595 11.58 3.881 12.175 9.997a11.105 11.105 0 0 1-.878 5.525z"/>
            <path fill-opacity=".399" d="M238.365 843.186c20.862 2.071 36.509 3.419 46.94 4.043 10.412.624 26.03 1.147 46.855 1.571 13.282 0 24.05 10.745 24.05 24v28.8c0 13.255-10.768 24-24.05 24-21.554-.468-37.72-1.024-48.497-1.669-10.066-.603-25.166-1.918-45.298-3.945-13.282 0-24.05-10.745-24.05-24v-28.8c0-13.255 10.768-24 24.05-24z"/>
        </g>
        <g fill-rule="nonzero">
            <path fill-opacity=".6" d="M258.125 394.021c-6.762 3.692-9.301 13.49-4.661 20.777-1.173 1.638-2.528 3.117-4.256 4.223-1.003.639-2.144.851-3.307.873-.938.01-1.888-.043-2.805-.213-1.781-.34-3.541-.128-5.301.138-3.168.5-5.632-.68-7.595-3.074-1.92-2.34-3.275-5.011-4.544-7.734-1.333-2.894-2.219-5.894-2.485-9.075-.203-2.415-.182-4.819.565-7.16 1.259-3.978 4.213-5.457 7.99-5.265 2.74.138 5.322 1.063 7.925 1.84 1.546.458 2.965.553 4.533.021 2.24-.766 4.587-1.149 6.976-1.042 1.952.085 3.765.553 5.184 2.01.981 1.022 1.515 2.277 1.781 3.681zM335.373 396.798h4.32v5.862h-4.224v14.319h-6.165v-14.245h-5.259v14.245h-6.165v-14.277h-2.155v-5.904h2.144v-.915c0-1.702-.064-3.404.32-5.085.598-2.67 2.048-4.702 4.523-5.915 1.653-.809 3.381-.904 5.11-.16.16.075.309.16.48.245v6.138a4.875 4.875 0 0 1-.385-.149c-.362-.148-.704-.34-1.077-.446-1.355-.394-2.517.34-2.645 1.744-.118 1.245-.096 2.511-.139 3.766-.01.224 0 .458 0 .724h5.205c.011-.245.043-.479.043-.724 0-1.861-.085-3.723.416-5.553.821-3.042 2.645-5.18 5.76-6.042 1.515-.415 3.093-.17 4.256.563v6.15c-.288-.139-.512-.299-.757-.362-.544-.139-1.099-.33-1.643-.32-.821 0-1.536.617-1.632 1.49-.192 1.574-.235 3.17-.33 4.85z"/>
            <path fill-opacity=".9" d="M293.336 416.702h-6.112v-2.01c-.117.074-.17.085-.192.117-1.973 2.936-5.792 3.148-8.33 1.83-2.55-1.33-4.171-3.448-4.918-6.192-.917-3.415-.81-6.787.875-9.968 1.141-2.16 2.826-3.798 5.248-4.458 2.645-.723 4.992-.127 6.912 1.883.096.096.149.234.224.351l.16-.095V383.85h6.144c-.011 10.936-.011 21.862-.011 32.851zm-13.653-10.149c0 1.298.352 2.309 1.141 3.298 1.259 1.575 3.499 1.766 5.013.426 1.952-1.713 2.102-5.128.32-7.064-1.621-1.766-4.096-1.628-5.504.308-.661.905-1.002 1.915-.97 3.032z"/>
            <path fill-opacity=".6" d="M398.083 416.99h-6.134V396.85h6.112v2.255c.043.011.086.032.118.043.192-.213.384-.426.565-.649 1.323-1.66 3.115-2.191 5.152-2.16 3.264.054 5.877 2.203 6.208 6.298.15 1.83.085 3.681.096 5.522.01 2.691.01 5.393.01 8.085v.723h-6.165v-.702c-.01-3.351 0-6.702-.021-10.053 0-.639-.075-1.277-.17-1.904-.214-1.309-.96-2.128-2.038-2.298-1.344-.224-2.635.33-3.168 1.532-.32.744-.523 1.595-.533 2.404-.054 3.404-.022 6.808-.022 10.213-.01.266-.01.51-.01.83zM389.87 410.968c-.022.16-.011.287-.043.404-.939 3.288-2.955 5.49-6.39 6.213-2.186.458-4.362.34-6.442-.5-2.976-1.191-4.662-3.521-5.451-6.521-.693-2.65-.63-5.33.235-7.915 1.536-4.617 5.034-6.713 9.781-6.404 4.79.298 7.36 3.489 8.267 7.702.277 1.287.245 2.638.352 3.957.01.096-.032.202-.064.383h-12.64c-.395 1.426.448 3.415 1.664 4.075 1.706.925 3.232.5 4.917-1.383 1.92-.01 3.85-.01 5.813-.01zm-5.515-6.82c-.022-2.084-1.632-3.542-3.744-3.403-1.664.106-3.179 1.83-2.987 3.404h6.73z"/>
            <path fill-opacity=".9" d="M260.056 407.915c-.064 2.287.672 3.723 2.123 4.255 1.749.639 3.008.192 4.437-1.617h5.813c.011.096.032.16.011.224-.864 3.468-2.976 5.85-6.56 6.553-2.603.51-5.141.255-7.467-1.128-2.549-1.521-3.872-3.904-4.416-6.723-.554-2.905-.352-5.766.907-8.468 1.472-3.181 3.979-4.937 7.52-5.181 2.336-.16 4.544.202 6.443 1.67 1.888 1.457 2.933 3.457 3.413 5.723.299 1.426.32 2.915.459 4.373.01.085-.022.17-.054.33-4.202-.011-8.405-.011-12.629-.011zm6.87-4.138c-.385-2.309-1.633-3.5-3.553-3.405-1.749.085-3.072 1.49-3.168 3.405h6.72zM294.307 396.394h6.186v.712c0 3.639-.01 7.266 0 10.905 0 .404.032.819.107 1.212.277 1.564 1.397 2.48 2.944 2.437 1.621-.043 2.73-.958 2.88-2.564.128-1.394.107-2.798.117-4.192.011-2.691 0-5.383 0-8.085 0-.128.011-.245.022-.415h6.144c.01.224.032.436.032.639 0 4.01.021 8.01-.022 12.02-.01 1-.117 2.022-.352 3-.618 2.554-2.282 4.214-4.768 4.98a13.49 13.49 0 0 1-8.074.01c-3.04-.925-4.907-3.266-5.131-6.425-.117-1.692-.096-3.394-.107-5.096-.01-2.872 0-5.745 0-8.617-.01-.16 0-.309.022-.521z"/>
            <path fill-opacity=".6" d="M413.368 416.968V402.66h-2.005v-5.862h2.005v-6.021h6.155v6H423v5.861h-3.435v14.34c-2.09-.01-4.106-.01-6.197-.01zM361.784 397.287v6.01c-.373-.233-.683-.435-1.013-.627-1.664-.957-3.446-.808-4.8.383-2.08 1.83-2.112 5.862-.022 7.702 1.28 1.128 2.752 1.32 4.32.66.502-.213.96-.521 1.494-.809v5.958c-1.6.979-3.36 1.245-5.206 1.032-3.52-.426-5.866-2.436-7.381-5.5-2.176-4.394-1.227-10.128 2.187-13.447 2.57-2.5 6.581-3.213 9.728-1.745.234.117.458.256.693.383zM346.744 396.84v20.139h-6.112V396.84h6.112zM363.555 396.83h6.09v20.149h-6.09v-20.15z"/>
            <path fill-opacity=".9" d="M228.13 380.32c3.094-.373 6.07-.363 8.79 1.36 1.056.671 1.856 1.607 2.485 2.66.79 1.32 1.547 2.67 2.294 4.011.106.192.117.426.17.649-3.434.585-11.957-4.798-13.738-8.68z"/>
            <path fill-opacity=".6" d="M370.019 389.074c-.032.862-.224 1.681-.715 2.415-1.408 2.075-4.053 2.075-5.461.011-.96-1.404-.982-3.468-.064-4.883 1.45-2.234 4.373-2.16 5.653.18.363.682.587 1.937.587 2.277zM347.107 388.883c.032 1.394-.384 2.447-1.291 3.308a3.107 3.107 0 0 1-3.968.266c-2.059-1.5-2.197-4.989-.267-6.648 1.366-1.181 3.275-1.043 4.48.308.726.82 1.046 1.692 1.046 2.766z"/>
            <path fill-opacity=".9" d="M242.392 389.085c.277-3.723 3.467-8.33 7.19-9.01.117 1.425.48 2.83 0 4.255-.278.84-.737 1.564-1.43 2.127-.843.692-4.64 2.426-5.76 2.628z"/>
        </g>
    </g>
</svg>
