<svg xmlns="http://www.w3.org/2000/svg" width="614" height="800" viewBox="0 0 614 800">
    <g fill="#FFF" fill-rule="evenodd">
        <g opacity=".25">
            <path fill-opacity=".399" fill-rule="nonzero" d="M606.781 111.546l-21.194 22.446c-8.816 9.337-23.432 10.104-33.18 1.74-8.504-7.293-13.342-11.419-14.515-12.376-7.924-6.463-14.699-11.663-20.326-15.6C318.772-31.289 33.54 78.67-19.84 314.738-60.26 493.58 34.825 668.772 208.5 726.258c119.59 39.599 230.043 19.286 328.11-56.514 1.075-.831 6.591-5.489 16.548-13.974 9.4-8.01 23.353-7.607 32.27.934l2.134 2.04c5 4.77 11.403 11.098 19.21 18.986 9.334 9.43 9.24 24.626-.21 33.94l-.063.063c-11.564 11.315-18.137 17.627-19.718 18.934-86.233 71.337-227.797 118.144-376.454 78.686C40.058 764.687-85.271 620.297-105.28 445.75-128.772 234.322-2.827 66.877 154.747 1.358c158.207-65.88 326.29-28.566 436.95 63.42 2.096 1.743 6.772 6.01 14.03 12.802l.001-.001c9.69 9.067 10.178 24.255 1.093 33.925l-.04.042z"/>
            <path fill-opacity=".75" fill-rule="nonzero" d="M501.382 577.257l22.078 22.763c9.238 9.524 8.99 24.718-.554 33.936a24.03 24.03 0 0 1-.162.155c-2.923 2.77-5.548 5.124-7.877 7.06-65.353 54.34-177.608 87.778-287.414 52.84C95.978 652.715 6.981 530.535 8.192 392.992c.685-134.97 90.861-255.297 220.66-295.72 106.885-33.3 215.95-2.178 281.933 50.168 3.439 2.728 7.404 6.21 11.896 10.445 9.654 9.104 10.085 24.293.963 33.927-.109.115-.219.23-.33.342l-22.154 22.489c-8.715 8.847-22.752 9.607-32.375 1.753-4.528-3.695-8.361-6.664-11.5-8.905-47.621-33.996-102.292-49.103-164.176-41.908-57.511 6.057-110.426 34.14-147.611 78.339-76.184 87.066-76.184 216.914 0 303.98A227.347 227.347 0 0 0 250.09 616.87a231.942 231.942 0 0 0 126.63 4.53c31.564-7.517 59.773-21.454 84.905-40.278 2.048-1.533 4.428-3.42 7.142-5.662 9.674-7.99 23.88-7.207 32.615 1.798z"/>
            <path fill-opacity=".75" fill-rule="nonzero" d="M-108.39 190.965c-56.436 124.885-65.656 252.819-19.069 382.091C-91.862 672.02-24.693 747.053 63.2 804.083a451.44 451.44 0 0 0 107.746 51.272c.342.11.873.274 1.594.494a26.506 26.506 0 0 1 18.785 26.157l-.15 4.97c-.285 9.478-8.2 16.93-17.678 16.645a17.17 17.17 0 0 1-3.966-.587c-6.863-1.856-10.825-2.964-11.886-3.325C10.888 849.871-95.898 753.967-162.713 611.998a35.249 35.249 0 0 0-20.268-19.742c-89.991-35.862-145.239-126.931-135.36-223.128 9.877-96.197 82.484-174.192 177.894-191.096 4.94-.863 11.86-1.726 20.76-2.589 6.129-.595 11.58 3.881 12.175 9.997a11.105 11.105 0 0 1-.878 5.525z"/>
            <path fill-opacity=".399" d="M238.365 843.186c20.862 2.071 36.509 3.419 46.94 4.043 10.412.624 26.03 1.147 46.855 1.571 13.282 0 24.05 10.745 24.05 24v28.8c0 13.255-10.768 24-24.05 24-21.554-.468-37.72-1.024-48.497-1.669-10.066-.603-25.166-1.918-45.298-3.945-13.282 0-24.05-10.745-24.05-24v-28.8c0-13.255 10.768-24 24.05-24z"/>
        </g>
        <path fill-rule="nonzero" d="M298.991 415.443c-4.8-1.217-7.86-4.765-7.965-9.078 0-.208.07-.452.104-.73h5.844c.174.522.209 1.148.522 1.565.765 1.043 1.426 2.365 2.504 2.957 2.609 1.46 5.46 1.356 8.209.243 1.321-.522 2.156-1.6 2.226-3.06.07-1.497-.73-2.644-2.052-3.131-2.435-.905-4.94-1.53-7.41-2.33-1.53-.488-3.095-.975-4.556-1.636-5.808-2.608-5.46-10.26-1.252-13.39 3.27-2.47 7.026-2.957 10.887-2.366 2.122.348 4.244 1.148 6.087 2.226 2.504 1.46 3.444 4 3.478 6.991H309.6c-1.183-4.521-4.66-5.008-8.313-4.382-1.74.313-2.922 1.635-3.06 3.13-.14 1.6.52 2.574 2.538 3.235 2.574.8 5.252 1.391 7.861 2.156 1.148.348 2.33.696 3.409 1.253 2.748 1.426 4.522 3.547 4.626 6.817.104 3.478-1.183 6.296-4.209 8-1.565.87-3.374 1.426-5.182 1.844-1.81.486-6.61.139-8.279-.314zm-82.678-15.026c0-1.46.452-4.347.66-5.217 3.027-11.2 14.853-12.904 21.81-8.974 3.304 1.878 5.217 4.765 5.704 8.696h-5.983c-.139-.244-.313-.522-.452-.835-1.182-2.678-3.235-4.14-6.156-4.348-3.305-.243-5.983.974-7.513 3.93-2.122 4.07-2.226 8.348-.313 12.557 1.46 3.235 4.521 4.87 8.07 4.557 3.164-.279 5.077-2.018 6.19-5.67.105-.383.279-.73.453-1.183h5.982c-.139.87-.174 1.67-.382 2.4-1.322 5.322-5.044 8.766-10.47 9.53-1.496.21-4.209.14-5.043 0-6.192-.938-10.018-4.486-11.827-10.4-.313-.903-.73-3.582-.73-5.043zm51.617 14.957h-5.043a77.218 77.218 0 0 0-.696-1.913 12.94 12.94 0 0 0-1.008.591c-3.096 2.087-6.505 2.261-9.983 1.322-2.609-.73-3.93-2.817-3.965-5.67-.035-3.095 1.043-5.043 3.826-5.878 2.296-.696 4.73-.939 7.13-1.391.696-.14 1.357-.209 2.018-.418 1.078-.313 1.913-.974 1.913-2.19 0-1.323-.487-2.436-1.844-2.853-2.295-.661-5.565-.87-6.713 2.783h-5.53c-.035-1.948.765-3.444 2.122-4.453 1.043-.8 2.26-1.495 3.513-1.808 3.13-.835 6.295-.8 9.46-.07 3.374.8 4.835 2.748 4.87 6.226v10.087c-.07 1.844-.07 3.687-.07 5.635zm-5.6-10.678c-1.356.347-2.121.556-2.887.695-.834.174-1.739.209-2.573.418-.835.208-1.705.417-2.435.87-1.809 1.078-1.948 3.651-.383 4.869 2.261 1.739 6.609.626 7.548-2.052.452-1.426.452-3.026.73-4.8zm167.027 1.147h-16.105c-.278 2.574.8 4.592 2.748 5.461 2.817 1.218 5.391.522 7.791-2.191h4.73c-.869 3.652-3.756 6.26-7.617 6.678-1.704.174-3.513.209-5.182-.104-4.905-.94-8.174-4.904-8.383-9.913-.278-6.504 2.644-10.957 8.209-12.452 6.643-1.774 12.66 2.226 13.53 9.043.105 1.009.14 2.087.279 3.478zm-6.157-3.617c-.209-3.339-2.191-5.217-5.113-5.078-2.713.139-5.183 2.226-4.765 5.078h9.878zm-93.183 13.67c-7.026.034-11.443-4.313-11.443-11.27-.035-7.165 4.278-11.617 11.27-11.652 7.095-.035 11.513 4.313 11.513 11.374.034 7.2-4.21 11.548-11.34 11.548zm5.357-9.148c.313-1.426.313-2.922.035-4.348-.105-.487-.209-.974-.348-1.426-.765-2.4-2.609-3.757-5.009-3.826-2.33-.035-4.243 1.322-5.078 3.687-.87 2.47-.87 4.974.035 7.443.834 2.33 2.608 3.548 5.008 3.513 2.4 0 4.174-1.217 4.974-3.582.14-.452.279-.94.383-1.461zm9.322-13.183h5.67c.034.8.104 1.53.138 2.261.07 4 .035 8 .279 11.965.139 2.54 1.356 3.618 3.513 3.722 2.782.14 4.382-.87 4.974-3.304.278-1.183.347-2.4.382-3.618.035-3.652 0-7.27 0-11.026h5.6v21.774h-5.148c-.07-.87-.174-1.774-.278-2.782-.104.139-.174.173-.209.243-2.47 3.27-6.365 3.513-9.913 2.817-2.817-.556-4.382-2.539-4.695-5.356-.279-2.644-.313-5.322-.348-7.965 0-2.887.035-5.74.035-8.73zm60.626 7.27h-5.53c-.662-1.6-1.496-3.061-3.444-3.478-3.165-.661-5.878 1.043-6.47 4.66-.313 1.948-.174 4.07.244 5.983.521 2.4 2.4 3.757 4.556 3.826 2.4.104 3.965-1.009 4.94-3.548.104-.278.243-.521.417-.87h5.287c-.244 2.749-1.357 4.835-3.409 6.435-3.304 2.574-9.148 2.818-13.009.627-3.652-2.087-5.704-6.505-5.113-10.992.766-5.774 3.305-9.113 8.14-10.156 3.652-.8 7.269-.487 10.4 1.913 1.808 1.356 2.782 3.165 2.99 5.6zm-127.444 14.539h-5.495v-30.191h5.495v30.19zm10.122 0h-5.496v-30.191H288v30.19zm95.34-17.009c-.592-.07-1.01-.104-1.392-.139-3.583-.209-6.157 1.704-6.505 5.287-.313 3.165-.208 6.365-.313 9.53-.034.73 0 1.461 0 2.33h-5.67V393.67h5.218c.07 1.182.14 2.365.244 4.07 2.156-3.2 4.521-5.218 8.382-4.592.035 1.739.035 3.374.035 5.217z"/>
    </g>
</svg>
