<svg xmlns="http://www.w3.org/2000/svg" width="614" height="800" viewBox="0 0 614 800">
    <g fill="#FFF" fill-rule="evenodd">
        <g opacity=".25">
            <path fill-opacity=".399" fill-rule="nonzero" d="M606.781 111.546l-21.194 22.446c-8.816 9.337-23.432 10.104-33.18 1.74-8.504-7.293-13.342-11.419-14.515-12.376-7.924-6.463-14.699-11.663-20.326-15.6C318.772-31.289 33.54 78.67-19.84 314.738-60.26 493.58 34.825 668.772 208.5 726.258c119.59 39.599 230.043 19.286 328.11-56.514 1.075-.831 6.591-5.489 16.548-13.974 9.4-8.01 23.353-7.607 32.27.934l2.134 2.04c5 4.77 11.403 11.098 19.21 18.986 9.334 9.43 9.24 24.626-.21 33.94l-.063.063c-11.564 11.315-18.137 17.627-19.718 18.934-86.233 71.337-227.797 118.144-376.454 78.686C40.058 764.687-85.271 620.297-105.28 445.75-128.772 234.322-2.827 66.877 154.747 1.358c158.207-65.88 326.29-28.566 436.95 63.42 2.096 1.743 6.772 6.01 14.03 12.802l.001-.001c9.69 9.067 10.178 24.255 1.093 33.925l-.04.042z"/>
            <path fill-opacity=".75" fill-rule="nonzero" d="M501.382 577.257l22.078 22.763c9.238 9.524 8.99 24.718-.554 33.936a24.03 24.03 0 0 1-.162.155c-2.923 2.77-5.548 5.124-7.877 7.06-65.353 54.34-177.608 87.778-287.414 52.84C95.978 652.715 6.981 530.535 8.192 392.992c.685-134.97 90.861-255.297 220.66-295.72 106.885-33.3 215.95-2.178 281.933 50.168 3.439 2.728 7.404 6.21 11.896 10.445 9.654 9.104 10.085 24.293.963 33.927-.109.115-.219.23-.33.342l-22.154 22.489c-8.715 8.847-22.752 9.607-32.375 1.753-4.528-3.695-8.361-6.664-11.5-8.905-47.621-33.996-102.292-49.103-164.176-41.908-57.511 6.057-110.426 34.14-147.611 78.339-76.184 87.066-76.184 216.914 0 303.98A227.347 227.347 0 0 0 250.09 616.87a231.942 231.942 0 0 0 126.63 4.53c31.564-7.517 59.773-21.454 84.905-40.278 2.048-1.533 4.428-3.42 7.142-5.662 9.674-7.99 23.88-7.207 32.615 1.798z"/>
            <path fill-opacity=".75" fill-rule="nonzero" d="M-108.39 190.965c-56.436 124.885-65.656 252.819-19.069 382.091C-91.862 672.02-24.693 747.053 63.2 804.083a451.44 451.44 0 0 0 107.746 51.272c.342.11.873.274 1.594.494a26.506 26.506 0 0 1 18.785 26.157l-.15 4.97c-.285 9.478-8.2 16.93-17.678 16.645a17.17 17.17 0 0 1-3.966-.587c-6.863-1.856-10.825-2.964-11.886-3.325C10.888 849.871-95.898 753.967-162.713 611.998a35.249 35.249 0 0 0-20.268-19.742c-89.991-35.862-145.239-126.931-135.36-223.128 9.877-96.197 82.484-174.192 177.894-191.096 4.94-.863 11.86-1.726 20.76-2.589 6.129-.595 11.58 3.881 12.175 9.997a11.105 11.105 0 0 1-.878 5.525z"/>
            <path fill-opacity=".399" d="M238.365 843.186c20.862 2.071 36.509 3.419 46.94 4.043 10.412.624 26.03 1.147 46.855 1.571 13.282 0 24.05 10.745 24.05 24v28.8c0 13.255-10.768 24-24.05 24-21.554-.468-37.72-1.024-48.497-1.669-10.066-.603-25.166-1.918-45.298-3.945-13.282 0-24.05-10.745-24.05-24v-28.8c0-13.255 10.768-24 24.05-24z"/>
        </g>
        <path fill-opacity=".399" fill-rule="nonzero" d="M271.343 383.177l-1.058 1.123a1.2 1.2 0 0 1-1.656.087 78.178 78.178 0 0 0-.724-.62 17.892 17.892 0 0 0-1.014-.78c-9.919-6.951-24.15-1.453-26.814 10.35-2.017 8.942 2.727 17.702 11.393 20.576 5.967 1.98 11.478.964 16.371-2.826.054-.041.33-.274.826-.699a1.2 1.2 0 0 1 1.61.047l.107.102c.249.239.568.555.958.95a1.2 1.2 0 0 1-.01 1.697l-.004.003c-.577.565-.905.881-.983.946-4.303 3.567-11.367 5.908-18.784 3.935a21.3 21.3 0 0 1-15.747-18.18c-1.173-10.572 5.111-18.944 12.974-22.22 7.894-3.294 16.28-1.428 21.802 3.17.104.088.338.301.7.641a1.2 1.2 0 0 1 .054 1.696l-.001.002z"/>
        <path fill-opacity=".75" fill-rule="nonzero" d="M266.084 406.463l1.101 1.138a1.2 1.2 0 0 1-.036 1.705 8.24 8.24 0 0 1-.393.353c-3.26 2.717-8.862 4.388-14.34 2.642a15.635 15.635 0 0 1-10.94-15.051c.033-6.749 4.533-12.765 11.01-14.786 5.332-1.665 10.774-.11 14.067 2.508.171.136.37.31.593.522a1.2 1.2 0 0 1 .032 1.714l-1.106 1.124a1.2 1.2 0 0 1-1.615.088 11.614 11.614 0 0 0-.574-.445c-2.376-1.7-5.104-2.456-8.191-2.096a11.144 11.144 0 0 0-7.366 3.917 11.554 11.554 0 0 0 0 15.2 11.342 11.342 0 0 0 5.219 3.447 11.55 11.55 0 0 0 6.318.227c1.575-.376 2.983-1.073 4.237-2.014.102-.077.22-.171.356-.283a1.2 1.2 0 0 1 1.628.09z"/>
        <path fill-opacity=".75" fill-rule="nonzero" d="M235.658 387.148c-2.816 6.245-3.276 12.641-.951 19.105 1.776 4.948 5.127 8.7 9.513 11.551a22.504 22.504 0 0 0 5.454 2.588c.572.174.957.71.939 1.308l-.008.249a.858.858 0 0 1-1.082.802 17.842 17.842 0 0 1-.59-.166c-7.323-2.491-12.651-7.287-15.985-14.385a1.76 1.76 0 0 0-1.012-.987 10.825 10.825 0 0 1 2.123-20.711c.246-.044.592-.087 1.036-.13a.556.556 0 0 1 .563.776z"/>
        <path fill-opacity=".399" d="M252.96 419.76a65.55 65.55 0 0 0 2.342.201c.52.032 1.299.058 2.338.079a1.2 1.2 0 0 1 1.2 1.2v1.44a1.2 1.2 0 0 1-1.2 1.2 69.345 69.345 0 0 1-2.42-.083 61.058 61.058 0 0 1-2.26-.198 1.2 1.2 0 0 1-1.2-1.2v-1.44a1.2 1.2 0 0 1 1.2-1.2z"/>
        <path d="M282.722 399.63c0-2.073.826-4.077 2.479-6.012 1.831-2.145 4.168-3.218 7.012-3.218 1.783 0 3.509.498 5.178 1.494 1.774 1.052 2.949 2.42 3.524 4.104h-3.852c-1.402-1.53-3.002-2.295-4.801-2.295-1.078 0-2.103.3-3.075.899a6.528 6.528 0 0 0-2.254 2.301c-.563.96-.845 1.966-.845 3.018 0 1.806.628 3.328 1.884 4.566a6.184 6.184 0 0 0 2.017 1.33c.762.312 1.52.468 2.273.468 1.734 0 3.261-.713 4.582-2.138h3.974c-.794 1.854-2.119 3.263-3.974 4.226-1.588.818-3.25 1.227-4.983 1.227-1.458 0-2.974-.47-4.545-1.409-1.362-.81-2.451-1.947-3.27-3.412-.883-1.579-1.324-3.295-1.324-5.15zm19.384 2.477c0-1.465.36-2.777 1.082-3.935 1.329-2.129 3.261-3.194 5.797-3.194 1.013 0 1.95.205 2.814.614.863.409 1.493.973 1.89 1.694v-1.943h3.014v13.808h-3.014v-1.895c-.495.688-1.2 1.255-2.115 1.7-.883.43-1.762.644-2.637.644-1.305 0-2.48-.318-3.525-.953-1.045-.636-1.86-1.537-2.443-2.702-.575-1.142-.863-2.421-.863-3.838zm7.499 4.287c1.118 0 2.07-.405 2.856-1.214.754-.778 1.13-1.75 1.13-2.915 0-1.7-.692-2.899-2.078-3.595a4.436 4.436 0 0 0-2.005-.486c-1.58 0-2.75.652-3.513 1.956-.38.64-.57 1.364-.57 2.173 0 1.676.728 2.875 2.187 3.595.64.324 1.304.486 1.993.486zm9.59-15.654h3.305v18.41h-3.306v-18.41zm5.979 0h3.305v18.41h-3.305v-18.41zm11.773 7.918c.275-2.453 1.36-4.449 3.257-5.987 1.815-1.482 3.909-2.222 6.283-2.222.778 0 1.592.105 2.443.315a9.027 9.027 0 0 1 4.326 2.478 10.59 10.59 0 0 1 1.641 2.21h-2.042c-1.045-1.409-2.378-2.352-3.998-2.83a8.018 8.018 0 0 0-2.273-.34c-1.572 0-3.006.411-4.302 1.233a7.434 7.434 0 0 0-2.88 3.358 7.625 7.625 0 0 0-.657 3.145c0 2.178.806 4.016 2.419 5.514a8.226 8.226 0 0 0 2.528 1.633 7.47 7.47 0 0 0 2.844.565c1.158 0 2.329-.296 3.512-.887 1.134-.566 2.094-1.396 2.88-2.49h2.042c-.98 1.7-2.228 2.984-3.743 3.85-1.475.834-3.038 1.251-4.691 1.251-2.56 0-4.789-.878-6.685-2.635-1.985-1.83-2.977-4.137-2.977-6.922 0-.389.024-.802.073-1.239zm20.66 10.493V395.5h1.714v2.04c.762-1.563 2.09-2.344 3.986-2.344v1.87c-1.36 0-2.459.603-3.293 1.81a3.235 3.235 0 0 0-.584 1.87v8.404h-1.823zm7.463 0v-13.602h1.847v13.602h-1.847zm0-15.241v-3.17h1.847v3.17h-1.847zm6.55 15.24v-11.937h-2.856v-1.664h2.856v-4.809h1.848v4.81h3.16v1.663h-3.16v11.938h-1.848zm6.369-6.885c0-2.089.753-3.81 2.26-5.161a7.464 7.464 0 0 1 3.525-1.786 6.684 6.684 0 0 1 1.264-.121c1.84 0 3.447.623 4.825 1.87 1.507 1.377 2.26 3.23 2.26 5.562v.352h-12.287c0 .672.195 1.352.584 2.04.656 1.158 1.628 1.948 2.916 2.369a5.161 5.161 0 0 0 1.653.291c.98 0 1.94-.275 2.88-.826 1.005-.583 1.67-1.311 1.994-2.186h1.896a7.092 7.092 0 0 1-1.191 2.126 6.967 6.967 0 0 1-3.634 2.368 7.715 7.715 0 0 1-2.054.291c-1.11 0-2.232-.322-3.367-.965a6.742 6.742 0 0 1-2.625-2.63c-.6-1.076-.9-2.274-.9-3.594zm12.348-.923c-.324-1.684-1.268-2.943-2.832-3.777a5.08 5.08 0 0 0-2.419-.607c-.988 0-1.887.23-2.698.692a4.744 4.744 0 0 0-1.92 1.992c-.364.688-.575 1.255-.632 1.7h10.5zm4.35 7.809V395.5h1.714v2.04c.762-1.563 2.09-2.344 3.987-2.344v1.87c-1.361 0-2.46.603-3.294 1.81a3.235 3.235 0 0 0-.583 1.87v8.404h-1.823zm7.463 0v-13.602h1.847v13.602h-1.847zm0-15.241v-3.17h1.847v3.17h-1.847zm4.412 8.525c0-1.352.336-2.59 1.008-3.716a7.014 7.014 0 0 1 2.796-2.636c1.118-.59 2.28-.886 3.488-.886 2.463 0 4.245.996 5.347 2.987v-2.635H421v13.602h-1.799v-2.587c-.518.94-1.3 1.668-2.345 2.186-.956.47-2.006.704-3.148.704-1.175 0-2.342-.31-3.5-.929-1.159-.62-2.056-1.463-2.692-2.532-.636-1.069-.954-2.255-.954-3.558zm1.896-.425c0 2.275.895 3.926 2.686 4.955.826.477 1.68.716 2.564.716 1.531 0 2.84-.542 3.925-1.627 1.046-1.045 1.568-2.25 1.568-3.62 0-1.505-.502-2.76-1.507-3.764-1.102-1.1-2.35-1.651-3.743-1.651-2.09 0-3.683.906-4.776 2.72-.478.785-.717 1.542-.717 2.27z"/>
    </g>
</svg>
